<?xml version="1.0" encoding="iso-8859-1"?>
<!-- Generator: Adobe Illustrator 16.0.0, SVG Export Plug-In . SVG Version: 6.00 Build 0)  -->
<!DOCTYPE svg PUBLIC "-//W3C//DTD SVG 1.1//EN" "http://www.w3.org/Graphics/SVG/1.1/DTD/svg11.dtd">
<svg version="1.1" id="Capa_1" xmlns="http://www.w3.org/2000/svg" xmlns:xlink="http://www.w3.org/1999/xlink" x="0px" y="0px"
	 width="34.386px" height="34.386px" viewBox="0 0 34.386 34.386" style="enable-background:new 0 0 34.386 34.386;"
	 xml:space="preserve">
<g>
	<path d="M26.361,4.052h-3.564c0.004-0.039,0.021-0.074,0.021-0.114C22.818,1.767,21.051,0,18.881,0h-4.125
		c-2.171,0-3.938,1.767-3.938,3.938c0,0.041,0.019,0.075,0.023,0.114H8.025c-1.656,0-3,1.344-3,3v1.167h24.333V7.052
		C29.361,5.396,28.018,4.052,26.361,4.052z M12.818,3.938C12.818,2.87,13.688,2,14.756,2h4.125c1.067,0,1.938,0.869,1.938,1.938
		c0,0.041,0.019,0.075,0.022,0.114h-8.046C12.799,4.013,12.818,3.978,12.818,3.938z M5.026,31.386c0,1.656,1.344,3,3,3H26.36
		c1.656,0,3-1.344,3-3V10.219H5.026V31.386z M24.193,13.72c0-0.552,0.449-1,1-1c0.553,0,1,0.448,1,1v17.373c0,0.554-0.447,1-1,1
		c-0.551,0-1-0.446-1-1V13.72z M18.861,13.72c0-0.552,0.447-1,1-1c0.551,0,1,0.448,1,1v17.373c0,0.554-0.449,1-1,1
		c-0.553,0-1-0.446-1-1V13.72z M13.526,13.72c0-0.552,0.448-1,1-1c0.552,0,1,0.448,1,1v17.373c0,0.554-0.448,1-1,1
		c-0.552,0-1-0.446-1-1V13.72z M8.193,13.72c0-0.552,0.448-1,1-1s1,0.448,1,1v17.373c0,0.554-0.448,1-1,1s-1-0.446-1-1V13.72z"/>
</g>
<g>
</g>
<g>
</g>
<g>
</g>
<g>
</g>
<g>
</g>
<g>
</g>
<g>
</g>
<g>
</g>
<g>
</g>
<g>
</g>
<g>
</g>
<g>
</g>
<g>
</g>
<g>
</g>
<g>
</g>
</svg>
